# xmcd
#
# Track frame offsets:
#	150
#	12805
#	27057
#	40414
#	53402
#	68285
#	83947
#	99032
#	111167
#	125257
#	139420
#	154860
#
# Disc length: 2188 seconds
#
# Revision: 0
# Processed by: cddbd v1.5.1PL0 Copyright (c) Steve Scherf et al.
# Submitted via: dBpowerAMP V4.0
#
DISCID=88088a0c
DTITLE=Linda Feller - Stille Stunden am Kmin
DYEAR=1900
DGENRE=Country
TTITLE0=Weisser Winterwald
TTITLE1=Ein Winter, ein Frühling, ein Sommer, ein Jahr
TTITLE2=Weihnachten im Büro
TTITLE3=Heidschi Bumbeidschi
TTITLE4=Eisblumen blüh'n an den Fenstern dieser Welt
TTITLE5=Winter im Land
TTITLE6=Stille Stunden am Kamin
TTITLE7=White Christmas
TTITLE8=In dieser Stillen Nacht
TTITLE9=Weihnachten im Süden
TTITLE10=Winterzeit - Kinderzeit
TTITLE11=Leise rieselt der Schnee
EXTD=
EXTT0=
EXTT1=
EXTT2=
EXTT3=
EXTT4=
EXTT5=
EXTT6=
EXTT7=
EXTT8=
EXTT9=
EXTT10=
EXTT11=
PLAYORDER=
